<svg xmlns="http://www.w3.org/2000/svg" width="501" height="498" viewBox="0 0 501 498" version="1.1">
	<path d="M 1 162.162 C 1 163.351, 2.081 166.169, 3.402 168.423 C 6.007 172.869, 14.981 181, 17.282 181 C 19.048 181, 28 192.235, 28 194.451 C 28 195.405, 29.752 196.822, 32.264 197.899 C 37.846 200.292, 38.765 201.536, 41.500 210.401 C 43.514 216.926, 44.562 218.600, 49.913 223.836 C 53.275 227.125, 56.689 231.404, 57.499 233.344 C 58.310 235.284, 60.104 238.538, 61.487 240.575 C 62.869 242.612, 64 245.275, 64 246.491 C 64 247.708, 65.291 250.054, 66.868 251.704 C 68.445 253.355, 70.133 255.357, 70.618 256.153 C 71.103 256.949, 72.963 258.621, 74.750 259.868 C 76.537 261.116, 78 262.700, 78 263.389 C 78 264.725, 89.428 274.282, 93.227 276.123 C 94.477 276.729, 97.300 279.392, 99.500 282.040 C 104.051 287.518, 105.323 288.134, 104.387 284.406 L 103.736 281.812 106.811 283.402 C 108.646 284.351, 110.126 284.606, 110.479 284.034 C 110.849 283.436, 112 283.498, 113.540 284.200 C 114.898 284.819, 116.341 284.992, 116.748 284.585 C 117.155 284.178, 117.562 278.817, 117.652 272.672 C 117.742 266.528, 118.117 260.315, 118.487 258.866 C 118.941 257.084, 118.479 254.899, 117.059 252.116 C 115.286 248.641, 114.480 248, 111.881 248 C 107.511 248, 102.863 242.842, 102.229 237.292 C 101.762 233.195, 101.636 233.068, 97.407 232.434 C 91.855 231.601, 90.071 229.684, 92.427 227.081 C 93.706 225.668, 93.827 225.011, 92.914 224.447 C 92.019 223.894, 92.171 223.348, 93.488 222.385 C 95.170 221.155, 95.178 220.921, 93.617 218.538 C 91.688 215.594, 89.423 215.307, 86.807 217.675 C 85.012 219.299, 85.005 219.233, 86.560 215.511 C 88.071 211.895, 88.058 211.608, 86.332 210.586 C 85.324 209.989, 83.600 209.500, 82.500 209.500 C 80.990 209.500, 80.578 208.940, 80.819 207.214 C 81.102 205.188, 80.756 204.954, 77.781 205.154 C 73.365 205.452, 72.165 204.586, 72.751 201.524 C 73.100 199.699, 72.802 199, 71.676 199 C 70.819 199, 69.819 199.483, 69.455 200.073 C 69.040 200.745, 68.247 200.370, 67.339 199.073 C 65.840 196.934, 63 196.231, 63 198 C 63 200.042, 59.990 198.908, 58.353 196.250 C 56.081 192.558, 47.211 184.188, 43.549 182.279 C 41.926 181.433, 39.981 180.124, 39.227 179.370 C 38.474 178.617, 37.485 178, 37.030 178 C 36.574 178, 35.215 176.088, 34.008 173.750 C 29.658 165.322, 28.661 164.808, 16.956 164.969 C 14.685 165, 12.192 164.117, 10.012 162.509 C 5.637 159.281, 1 159.103, 1 162.162 M 345 175 C 345 176.824, 345.415 177.862, 346 177.500 C 346.550 177.160, 347 176.035, 347 175 C 347 173.965, 346.550 172.840, 346 172.500 C 345.415 172.138, 345 173.176, 345 175 M 226.047 175.761 C 224.498 177.015, 223.781 178.858, 223.559 182.157 C 223.206 187.399, 222.492 189, 220.508 189 C 218.945 189, 217.552 192.466, 218.499 193.998 C 218.844 194.557, 218.473 195.265, 217.675 195.571 C 216.876 195.878, 215.478 198.078, 214.568 200.461 C 213.146 204.184, 212.410 204.888, 209.334 205.465 C 207.365 205.835, 204.956 206.635, 203.981 207.244 C 202.633 208.086, 201.156 207.950, 197.821 206.676 C 192.264 204.553, 187.132 204.491, 186.347 206.537 C 185.567 208.571, 180.205 211.293, 178.367 210.588 C 177.569 210.281, 174.928 210.562, 172.499 211.211 C 168.118 212.383, 168.055 212.364, 164.493 208.696 C 162.519 206.663, 160.475 205, 159.952 205 C 159.428 205, 159 204.415, 159 203.700 C 159 202.985, 158.493 201.893, 157.874 201.274 C 155.186 198.586, 149.003 211.283, 150.580 216.253 C 150.956 217.437, 151.903 219.046, 152.684 219.827 C 153.593 220.736, 153.885 222.249, 153.494 224.029 C 153.152 225.583, 153.350 227.098, 153.941 227.464 C 154.524 227.824, 155 229.040, 155 230.166 C 155 231.470, 155.488 232.027, 156.344 231.698 C 157.317 231.325, 157.555 231.877, 157.207 233.700 C 156.765 236.011, 156.903 236.123, 158.883 235.062 C 162.058 233.364, 163.305 234.690, 162.709 239.129 C 162.424 241.258, 162.584 243.243, 163.066 243.541 C 163.548 243.839, 164.232 246.270, 164.587 248.945 C 165.178 253.399, 165.495 253.860, 168.366 254.444 C 172.948 255.376, 174.107 255.389, 178.186 254.555 C 181.812 253.814, 181.883 253.860, 182.543 257.379 C 183.162 260.675, 183.382 260.864, 185.357 259.784 C 186.536 259.140, 188.693 258.729, 190.151 258.871 C 191.821 259.034, 193.538 258.339, 194.795 256.990 C 196.066 255.626, 197.030 255.239, 197.453 255.925 C 197.819 256.516, 198.991 257, 200.059 257 C 201.127 257, 202 257.675, 202 258.500 C 202 259.633, 203.222 260, 207 260 C 211.514 260, 212.001 260.219, 212.015 262.250 C 212.049 267.265, 213.333 267.566, 220.665 264.276 L 227.500 261.208 228.335 263.610 C 229.297 266.375, 230.711 265.890, 232.063 262.333 C 232.770 260.475, 232.614 259.471, 231.437 258.295 C 230.330 257.188, 230.183 256.417, 230.936 255.664 C 231.521 255.079, 232 253.565, 232 252.300 C 232 251.035, 232.450 250, 233 250 C 234.225 250, 234.336 246.326, 233.134 245.583 C 231.261 244.425, 233.422 240.009, 238.132 235.370 C 240.851 232.692, 243.284 230.613, 243.538 230.750 C 245.839 231.995, 247.164 227.837, 244.910 226.444 C 244.247 226.035, 244.067 224.348, 244.451 222.135 C 245.527 215.930, 247.081 213.009, 249.371 212.884 C 250.542 212.820, 253.483 212.707, 255.907 212.634 C 258.332 212.560, 260.464 212.050, 260.646 211.500 C 260.829 210.950, 258.283 208.536, 254.989 206.136 C 250.167 202.623, 249 201.233, 249 199.008 C 249 195.521, 246.235 188.758, 244.371 187.689 C 242.476 186.600, 243.615 184.944, 245.782 185.637 C 246.865 185.983, 246.576 185.420, 245 184.115 L 242.500 182.044 244.857 182.022 C 246.518 182.007, 247.047 181.565, 246.649 180.526 C 246.336 179.711, 246.842 178.628, 247.783 178.101 C 248.718 177.578, 249.129 176.796, 248.696 176.363 C 248.263 175.930, 247.109 176.075, 246.131 176.686 C 244.709 177.574, 244.117 177.417, 243.168 175.898 C 241.510 173.243, 229.277 173.145, 226.047 175.761 M 142.095 176.941 C 140.425 177.973, 141.597 182, 143.567 182 C 144.420 182, 145 181.011, 145 179.559 C 145 176.731, 143.956 175.791, 142.095 176.941 M 333 181.878 C 333 182.360, 333.675 183.315, 334.500 184 C 336.128 185.351, 336.332 185.028, 335.393 182.582 C 334.750 180.907, 333 180.392, 333 181.878 M 7 191.402 C 7 192.606, 8.287 193.354, 14.500 195.757 C 15.050 195.969, 14.030 194.761, 12.234 193.072 C 8.692 189.740, 7 189.201, 7 191.402 M 361.774 195.374 C 360.285 196.505, 360.236 196.940, 361.416 198.555 C 362.577 200.142, 363.026 200.223, 364.392 199.090 C 366.293 197.512, 366.543 193.986, 364.750 194.032 C 364.063 194.049, 362.724 194.653, 361.774 195.374 M 356.270 200.250 C 353.752 202.976, 351.693 209.925, 352.953 211.443 C 353.444 212.035, 354.164 215.328, 354.552 218.760 C 354.941 222.192, 355.578 225, 355.969 225 C 356.359 225, 357.179 226.097, 357.790 227.438 C 358.401 228.779, 359.865 230.392, 361.043 231.023 L 363.185 232.169 361.018 229.238 C 358.248 225.491, 357.130 218.271, 359.198 217.477 C 360 217.170, 361.920 217.399, 363.466 217.987 C 367.311 219.449, 367.735 218.585, 364.598 215.679 L 361.974 213.247 364.487 211.600 C 366.789 210.092, 367.896 206.229, 366.442 204.775 C 365.104 203.437, 362.108 205.463, 360.075 209.080 C 358.863 211.236, 357.477 213, 356.995 213 C 355.139 213, 355.131 211.191, 356.979 209.519 C 358.457 208.182, 358.863 206.620, 358.706 202.885 C 358.593 200.199, 358.466 198.001, 358.424 198 C 358.383 198, 357.413 199.012, 356.270 200.250 M 324.182 205.500 C 323.555 206.875, 322.393 208, 321.598 208 C 320.804 208, 318.777 209.158, 317.095 210.573 C 315.057 212.288, 313.381 212.938, 312.070 212.522 C 310.988 212.179, 308.167 211.702, 305.801 211.463 C 303.436 211.224, 298.575 210.738, 295 210.385 C 291.425 210.031, 288.275 209.407, 288 208.997 C 287.725 208.587, 286.040 207.934, 284.255 207.547 C 281.409 206.930, 280.894 207.148, 280.067 209.325 C 278.887 212.429, 277.020 213.651, 275.994 211.991 C 274.965 210.326, 268.893 218.557, 269.665 220.570 C 269.967 221.356, 269.778 222, 269.246 222 C 268.713 222, 268.468 223.012, 268.701 224.250 C 268.934 225.488, 267.971 228.661, 266.562 231.303 C 265.153 233.945, 264 237.602, 264 239.431 C 264 243.363, 261.566 249.645, 259.817 250.228 C 258.241 250.753, 257.744 257.987, 259.166 259.700 C 259.760 260.415, 261.326 261, 262.647 261 C 265.740 261, 267.399 265.048, 266.540 270.500 C 264.671 282.364, 264.675 282.762, 266.655 283.390 C 267.695 283.721, 269.964 283.584, 271.698 283.087 C 273.431 282.590, 275.148 282.479, 275.514 282.841 C 275.879 283.204, 275.870 281.850, 275.493 279.832 C 275.117 277.815, 275.240 275.394, 275.768 274.451 C 276.391 273.337, 276.357 271.756, 275.671 269.939 C 274.905 267.911, 274.940 266.428, 275.795 264.550 C 276.723 262.513, 276.685 261.114, 275.616 258.011 C 274.320 254.249, 274.366 253.990, 276.593 252.531 C 277.878 251.689, 279.845 251, 280.965 251 C 282.601 251, 283 251.648, 283 254.300 C 283 256.115, 282.520 258.080, 281.934 258.666 C 281.180 259.420, 282.058 260.750, 284.939 263.216 C 288.589 266.340, 288.943 267.037, 288.360 269.951 C 287.907 272.217, 288.133 273.470, 289.105 274.086 C 291.264 275.453, 294 275.159, 294 273.559 C 294 271.622, 295.710 270.687, 299.079 270.783 C 304.188 270.928, 304.554 268.606, 300.096 264.323 C 297.098 261.442, 296.326 260.099, 297.029 258.987 C 298.556 256.572, 298.205 255.646, 294 251 C 291.800 248.569, 290 245.784, 290 244.810 C 290 243.782, 291.572 242.215, 293.750 241.070 C 295.813 239.986, 298.989 237.275, 300.809 235.046 C 303.697 231.510, 304.382 231.134, 306.187 232.100 C 308.658 233.423, 310.564 231.385, 308.820 229.284 C 307.419 227.595, 303 227.628, 303 229.327 C 303 230.240, 302.039 230.513, 299.919 230.201 C 298.224 229.953, 295.778 230.316, 294.484 231.008 C 293.190 231.701, 291.237 232.034, 290.144 231.748 C 288.808 231.399, 287.248 232.175, 285.391 234.114 C 281.939 237.717, 280.970 237.717, 277.760 234.115 C 276.346 232.528, 274.584 231.028, 273.845 230.782 C 272.951 230.484, 272.500 228.610, 272.500 225.194 C 272.500 221.264, 273.007 219.548, 274.658 217.898 C 276.517 216.039, 277.240 215.888, 279.880 216.808 C 281.565 217.396, 284.194 217.543, 285.722 217.135 C 288.436 216.411, 302.904 217.185, 312.119 218.548 C 316.464 219.190, 316.983 219.010, 320.848 215.519 C 325.604 211.222, 329.422 205.492, 328.511 204.018 C 327.403 202.224, 325.355 202.925, 324.182 205.500 M 23 207.545 C 23 208.395, 24.125 210.216, 25.500 211.591 C 26.875 212.966, 28 214.558, 28 215.129 C 28 215.700, 28.563 215.981, 29.250 215.755 C 31.467 215.025, 31.276 210.923, 28.908 208.402 C 26.364 205.694, 23 205.207, 23 207.545 M 97 210 C 97 210.550, 97.450 211, 98 211 C 98.550 211, 99 210.550, 99 210 C 99 209.450, 98.550 209, 98 209 C 97.450 209, 97 209.450, 97 210 M 100.624 209.800 C 100.352 210.240, 100.979 211.131, 102.018 211.779 C 104.006 213.021, 105.642 211.848, 104.500 210 C 103.760 208.803, 101.318 208.677, 100.624 209.800 M 102.244 223.250 C 102.470 223.938, 103.970 224.623, 105.577 224.773 C 108.365 225.033, 108.411 224.975, 106.559 223.523 C 104.213 221.682, 101.676 221.522, 102.244 223.250 M 374 223 C 374 223.550, 374.477 224, 375.059 224 C 375.641 224, 375.840 223.550, 375.500 223 C 375.160 222.450, 374.684 222, 374.441 222 C 374.198 222, 374 222.450, 374 223 M 385.014 223.483 C 383.993 224.713, 384.229 225.137, 386.391 225.959 C 389.561 227.164, 395 226.231, 395 224.482 C 395 221.794, 387.074 221.001, 385.014 223.483 M 36.667 224.667 C 36.300 225.033, 36 225.798, 36 226.367 C 36 226.993, 36.466 226.934, 37.183 226.217 C 37.834 225.566, 38.134 224.801, 37.850 224.517 C 37.566 224.232, 37.033 224.300, 36.667 224.667 M 349.326 227.081 C 349.682 228.412, 349.986 229.950, 350.002 230.500 C 350.018 231.050, 350.508 230.825, 351.091 230 C 351.890 228.871, 352.278 228.809, 352.659 229.750 C 352.938 230.438, 353.987 231, 354.989 231 C 356.574 231, 356.661 230.675, 355.656 228.508 C 355.020 227.137, 353.974 226.012, 353.332 226.008 C 352.689 226.004, 351.379 225.699, 350.421 225.331 C 348.972 224.775, 348.787 225.070, 349.326 227.081 M 100.655 227.542 C 101.310 229.249, 103.154 229.039, 103.771 227.188 C 103.991 226.528, 103.254 226, 102.115 226 C 100.677 226, 100.240 226.461, 100.655 227.542 M 402.139 228.033 C 400.841 229.115, 398.919 230, 397.868 230 C 396.800 230, 395.455 231.103, 394.818 232.500 C 393.442 235.519, 392.412 235.685, 391.710 233 C 391.352 231.632, 390.346 231, 388.526 231 L 385.864 231 388.001 234.002 C 390.252 237.163, 393.353 239.314, 394.297 238.370 C 394.605 238.062, 396.210 238.107, 397.864 238.470 C 399.980 238.935, 401.441 240.223, 402.791 242.815 L 404.710 246.500 413.516 246.500 C 419.172 246.500, 422.458 246.904, 422.704 247.631 C 423.225 249.168, 418.119 250.344, 416.556 249.047 C 415.652 248.296, 414.801 248.562, 413.496 250.004 C 412.166 251.474, 410.636 251.935, 407.702 251.751 C 405.218 251.594, 403.549 251.971, 403.274 252.750 C 403.032 253.438, 403.500 254, 404.314 254 C 405.128 254, 407.164 255.202, 408.838 256.671 C 411.213 258.755, 411.766 259.921, 411.355 261.977 C 410.653 265.484, 413.031 267.589, 415.936 266.034 C 417.071 265.427, 418 264.297, 418 263.524 C 418 261.027, 419.958 260.811, 423.386 262.930 C 425.229 264.068, 427.329 265, 428.054 265 C 428.778 265, 430.398 265.965, 431.654 267.144 C 432.997 268.407, 436.108 269.629, 439.218 270.117 C 442.123 270.573, 445.400 271.346, 446.500 271.834 C 453.958 275.148, 456.271 276, 457.802 276 C 459.673 276, 466.408 280.185, 469.250 283.113 C 470.212 284.105, 471 285.775, 471 286.823 C 471 287.872, 471.931 289.914, 473.069 291.360 C 474.341 292.978, 474.903 294.730, 474.528 295.911 C 474.193 296.967, 474.387 298.121, 474.959 298.475 C 476.514 299.436, 476.215 302, 474.547 302 C 471.479 302, 468.169 304.354, 466.126 307.989 C 464.957 310.070, 464 312.182, 464 312.684 C 464 313.988, 477.254 313.033, 478.743 311.621 C 479.528 310.877, 481.830 310.638, 484.996 310.972 C 489.403 311.436, 490.667 312.150, 495.503 316.902 L 501 322.305 501 309.852 C 501 301.660, 500.599 296.999, 499.827 296.227 C 498.930 295.330, 498.930 294.449, 499.826 292.483 C 501.339 289.162, 500.995 251.593, 499.437 250.036 C 498.852 249.452, 495.317 248.334, 491.581 247.553 C 487.845 246.771, 482.458 244.991, 479.608 243.597 C 476.759 242.203, 472.430 240.357, 469.988 239.496 C 465.874 238.044, 465.306 238.059, 462.274 239.692 C 460.473 240.661, 459 242.225, 459 243.166 C 459 244.415, 457.841 245.051, 454.707 245.521 C 450.980 246.080, 449.792 246.944, 445.680 252.082 C 441.753 256.989, 440.421 258, 437.879 258 C 435.654 258, 434.669 257.451, 434.290 256 C 434.002 254.900, 433.401 254, 432.953 254 C 432.505 254, 431.995 252.988, 431.820 251.750 C 431.611 250.279, 430.912 249.598, 429.802 249.782 C 427.092 250.232, 425.686 246.331, 426.392 240.324 C 427.161 233.778, 425.241 230.004, 421.135 229.993 C 419.686 229.990, 417.150 229.093, 415.500 228 C 411.592 225.412, 405.267 225.428, 402.139 228.033 M 441.131 230.414 C 442.579 231.253, 444.027 232.628, 444.350 233.470 C 444.993 235.145, 450 235.615, 450 234 C 450 233.450, 449.487 233, 448.860 233 C 448.233 233, 447.221 232.331, 446.610 231.513 C 446 230.696, 443.925 229.771, 442 229.458 L 438.500 228.889 441.131 230.414 M 38.529 232.954 C 37.535 234.561, 38.745 237.411, 41.530 240.029 C 43.512 241.891, 44.281 242.119, 45.263 241.137 C 46.244 240.156, 46.058 239.139, 44.356 236.200 C 42.168 232.421, 39.706 231.049, 38.529 232.954 M 433 232.810 C 433 233.347, 433.713 234.059, 434.584 234.394 C 435.557 234.767, 436.015 234.544, 435.771 233.813 C 435.273 232.318, 433 231.495, 433 232.810 M 303.446 235.429 C 301.988 236.505, 301.785 237.155, 302.637 238.020 C 303.483 238.879, 303.954 238.884, 304.476 238.039 C 305 237.192, 305.526 237.191, 306.545 238.038 C 308.177 239.392, 310 238.493, 310 236.334 C 310 235.430, 309.427 235.006, 308.622 235.315 C 307.864 235.606, 306.827 235.427, 306.318 234.918 C 305.751 234.351, 304.639 234.548, 303.446 235.429 M 352.667 237.667 C 350.659 239.674, 352.236 240.946, 356.500 240.761 C 361.504 240.543, 361.775 240.309, 359.250 238.392 C 357.377 236.970, 353.762 236.572, 352.667 237.667 M 114.352 238.692 C 113.171 238.923, 111.933 239.875, 111.601 240.806 C 111.270 241.738, 110.747 243.032, 110.439 243.682 C 110.080 244.440, 111.068 244.978, 113.189 245.182 C 116.078 245.459, 116.684 246.034, 117.947 249.687 C 119.436 253.993, 123.275 257.142, 124.949 255.430 C 125.449 254.918, 126.137 253.369, 126.478 251.988 C 126.998 249.877, 126.635 249.301, 124.204 248.383 C 121.900 247.514, 121.072 246.344, 120.141 242.646 C 119.495 240.082, 118.418 238.061, 117.736 238.136 C 117.056 238.211, 115.533 238.461, 114.352 238.692 M 440.174 239.508 C 441.679 241.012, 449.486 242.637, 452.233 242.017 C 454.314 241.548, 454.956 241.077, 454 240.721 C 452.327 240.097, 439.651 238.985, 440.174 239.508 M 319 241.678 C 319 243.508, 319.569 243.612, 327.404 243.200 C 334.981 242.803, 335.854 242.943, 336.287 244.630 C 336.711 246.278, 336.782 246.293, 336.884 244.750 C 336.948 243.787, 337.675 243, 338.500 243 C 339.325 243, 340 242.550, 340 242 C 340 241.450, 338.041 241, 335.647 241 C 333.252 241, 328.527 240.711, 325.147 240.358 C 319.487 239.766, 319 239.871, 319 241.678 M 381.191 240.850 C 378.414 241.632, 378.167 243.178, 380.676 244.073 C 383.249 244.991, 385 244.108, 385 241.893 C 385 239.884, 384.807 239.831, 381.191 240.850 M 53 250.344 C 53 251.289, 53.675 252.322, 54.500 252.638 C 55.325 252.955, 56 253.786, 56 254.485 C 56 255.183, 56.675 256.315, 57.500 257 C 60.485 259.477, 59.126 254.495, 56 251.500 C 53.612 249.212, 53 248.976, 53 250.344 M 136.847 251.436 C 136.237 252.776, 135.997 254.551, 136.316 255.380 C 137.105 257.437, 142.009 256.947, 143.400 254.674 C 144.292 253.214, 144.054 252.509, 142.139 250.937 C 139.061 248.411, 138.188 248.493, 136.847 251.436 M 366 252.769 C 364.075 252.938, 361.825 253.356, 361 253.697 C 360.175 254.038, 359.258 254.278, 358.962 254.230 C 358.666 254.181, 358.330 255.289, 358.213 256.692 C 358.034 258.854, 358.231 259.053, 359.501 257.999 C 361.293 256.512, 363.966 258.200, 364.052 260.872 C 364.093 262.139, 364.449 262.007, 365.657 260.276 C 367.068 258.255, 367.768 258.109, 373.355 258.669 C 376.735 259.008, 381.623 260.346, 384.217 261.642 C 389.831 264.449, 390 264.469, 390 262.344 C 390 259.518, 385.106 254, 382.598 254 C 381.333 254, 378.872 253.503, 377.128 252.895 C 374.854 252.102, 373.590 252.095, 372.655 252.871 C 371.939 253.466, 370.936 253.617, 370.426 253.207 C 369.917 252.796, 367.925 252.599, 366 252.769 M 339.186 256.055 C 336.711 257.047, 336.888 257.935, 340.323 261.750 C 342.851 264.559, 346.368 264.632, 349.067 261.933 C 350.823 260.177, 350.936 259.613, 349.817 258.183 C 347.152 254.777, 343.964 254.139, 339.186 256.055 M 304.188 266.063 C 304.428 266.784, 305.216 267.572, 305.938 267.813 C 306.688 268.063, 307.063 267.688, 306.813 266.938 C 306.572 266.216, 305.784 265.428, 305.063 265.188 C 304.313 264.938, 303.938 265.313, 304.188 266.063 M 303.340 271.557 C 303.011 272.414, 302.169 272.895, 301.468 272.626 C 299.465 271.857, 297.304 274.191, 296.627 277.855 C 296.111 280.652, 296.273 281.109, 297.596 280.601 C 298.654 280.195, 299.360 280.661, 299.709 281.996 C 300.412 284.685, 302.109 284.474, 304.333 281.421 C 305.717 279.520, 305.892 278.575, 305.048 277.558 C 304.208 276.546, 304.311 275.832, 305.463 274.680 C 306.999 273.144, 306.595 270, 304.862 270 C 304.353 270, 303.668 270.701, 303.340 271.557 M 291.510 277.984 C 290.773 279.177, 291.709 281, 293.059 281 C 294.276 281, 294.284 278.293, 293.069 277.543 C 292.557 277.226, 291.856 277.425, 291.510 277.984 M 77.500 281 C 77.840 281.550, 78.541 282, 79.059 282 C 79.577 282, 80 281.550, 80 281 C 80 280.450, 79.298 280, 78.441 280 C 77.584 280, 77.160 280.450, 77.500 281 M 413.123 282.629 C 411.408 286.393, 412.541 286.788, 414.452 283.093 C 415.332 281.392, 415.662 280, 415.186 280 C 414.710 280, 413.782 281.183, 413.123 282.629 M 428.170 282.750 C 427.675 283.712, 427.472 285.062, 427.718 285.749 C 427.965 286.437, 427.454 287.272, 426.583 287.606 C 424.404 288.443, 424.317 297, 426.487 297 C 428.589 297, 432.758 289.992, 432.436 287 C 432.288 285.625, 432.129 283.712, 432.083 282.750 C 432.038 281.788, 431.341 281, 430.535 281 C 429.730 281, 428.665 281.788, 428.170 282.750 M 410.079 285.583 C 410.127 286.748, 410.364 286.985, 410.683 286.188 C 410.972 285.466, 410.936 284.603, 410.604 284.271 C 410.272 283.939, 410.036 284.529, 410.079 285.583 M 276.195 287.500 C 276.215 289.150, 276.439 289.704, 276.693 288.731 C 276.947 287.758, 276.930 286.408, 276.656 285.731 C 276.382 285.054, 276.175 285.850, 276.195 287.500 M 117.043 290.631 C 114.568 295.897, 114.465 297.419, 116.639 296.585 C 119.141 295.625, 124.173 298.182, 123.664 300.154 C 123.328 301.457, 124.221 301.943, 127.869 302.443 C 130.416 302.792, 135.146 304.037, 138.380 305.209 C 143.039 306.899, 144.831 307.125, 147.015 306.300 C 150.317 305.054, 161.346 306.788, 167.500 309.521 C 169.700 310.499, 172.850 311.455, 174.500 311.647 C 181.634 312.477, 187.839 312.946, 192.500 313.008 C 197.886 313.079, 206.424 314.660, 209.236 316.107 C 211.847 317.450, 212.062 317.231, 210.816 314.496 C 210.189 313.118, 210.035 311.656, 210.474 311.246 C 210.914 310.836, 211.466 311.037, 211.701 311.694 C 211.937 312.350, 213.706 313.408, 215.633 314.044 C 217.970 314.815, 218.958 315.666, 218.600 316.600 C 218.304 317.370, 218.250 318, 218.480 318 C 219.473 318, 224 313.164, 224 312.103 C 224 310.422, 219.807 309.076, 217.816 310.118 C 215.178 311.499, 214.288 311.214, 210.899 307.902 C 207.919 304.988, 207.415 304.843, 202.437 305.465 C 198.489 305.958, 196.348 305.714, 194.008 304.504 C 189.472 302.159, 190.720 300.510, 197.086 300.441 C 202.760 300.380, 207.486 298.596, 206.444 296.909 C 206.107 296.364, 205.082 296.145, 204.166 296.421 C 199.622 297.793, 182.541 296.693, 180.367 294.890 C 179.663 294.306, 178.590 294.136, 177.981 294.512 C 177.372 294.888, 175.995 294.400, 174.920 293.427 C 173.039 291.725, 172.861 291.759, 170.171 294.337 C 167.561 296.837, 166.916 296.983, 160.438 296.538 C 156.622 296.276, 152.287 296.048, 150.805 296.031 C 148.867 296.009, 147.739 295.227, 146.792 293.250 C 145.943 291.476, 144.592 290.424, 142.988 290.284 C 141.619 290.166, 138.250 289.432, 135.500 288.653 C 132.575 287.824, 130.047 287.599, 129.408 288.110 C 128.807 288.590, 128.038 288.704, 127.698 288.364 C 127.358 288.024, 125.281 287.417, 123.083 287.015 C 119.118 286.290, 119.070 286.319, 117.043 290.631 M 431.667 293.667 C 431.300 294.033, 431 294.798, 431 295.367 C 431 295.993, 431.466 295.934, 432.183 295.217 C 432.834 294.566, 433.134 293.801, 432.850 293.517 C 432.566 293.233, 432.033 293.300, 431.667 293.667 M 395.369 301.560 C 394.099 303.498, 393.486 303.801, 392.843 302.810 C 392.295 301.965, 392.146 302.387, 392.423 304 C 392.659 305.375, 392.885 307.063, 392.926 307.750 C 393.065 310.087, 395.943 309.011, 397.474 306.050 C 400.481 300.235, 398.711 296.460, 395.369 301.560 M 400.500 300 C 400.840 300.550, 401.316 301, 401.559 301 C 401.802 301, 402 300.550, 402 300 C 402 299.450, 401.523 299, 400.941 299 C 400.359 299, 400.160 299.450, 400.500 300 M 340.675 305.122 C 339.671 305.706, 338.588 305.921, 338.267 305.600 C 337.566 304.900, 335 306.881, 335 308.122 C 335 309.553, 339.860 309.124, 343.195 307.399 C 345.585 306.163, 345.973 305.597, 344.896 304.914 C 343.150 303.809, 342.913 303.821, 340.675 305.122 M 376.500 308 C 376.840 308.550, 377.541 309, 378.059 309 C 378.577 309, 379 308.550, 379 308 C 379 307.450, 378.298 307, 377.441 307 C 376.584 307, 376.160 307.450, 376.500 308 M 244.292 311.990 C 243.904 313.475, 243.202 313.838, 241.530 313.418 C 237.786 312.479, 233.854 318.556, 236.962 320.477 C 238.222 321.255, 250.852 319.049, 251.544 317.929 C 251.837 317.454, 253.394 317.329, 255.002 317.650 C 258.496 318.349, 263 317.376, 263 315.922 C 263 315.350, 262.480 315.203, 261.844 315.596 C 261.012 316.111, 260.871 315.357, 261.343 312.905 C 261.764 310.712, 261.673 310.004, 261.087 310.915 C 260.044 312.539, 253.218 312.618, 251.624 311.024 C 249.762 309.162, 244.863 309.807, 244.292 311.990 M 302.402 310.841 C 302.688 311.304, 301.633 312.635, 300.058 313.799 C 297.729 315.521, 296.605 315.747, 294.040 315.011 C 292.305 314.514, 290.257 314.348, 289.489 314.643 C 288.721 314.937, 285.709 314.305, 282.796 313.238 C 278.918 311.816, 276.664 311.523, 274.376 312.144 C 270.779 313.120, 268.239 315.666, 269.592 316.938 C 272.299 319.481, 298.526 317.881, 304.314 314.821 C 305.508 314.189, 306.567 314.225, 307.412 314.927 C 308.362 315.715, 309.453 315.338, 311.598 313.479 L 314.500 310.964 309.727 311.349 C 307.102 311.561, 304.713 311.344, 304.418 310.867 C 304.123 310.390, 303.432 310, 302.882 310 C 302.332 310, 302.116 310.378, 302.402 310.841 M 320 311.914 C 320 313.883, 320.358 314.026, 323.750 313.413 C 329.676 312.341, 329.634 311.302, 323.624 310.326 C 320.389 309.801, 320 309.972, 320 311.914 M 357.500 311 C 357.840 311.550, 358.541 312, 359.059 312 C 359.577 312, 360 311.550, 360 311 C 360 310.450, 359.298 310, 358.441 310 C 357.584 310, 357.160 310.450, 357.500 311 M 389.981 311.523 C 388.924 312.796, 388.986 312.943, 390.359 312.416 C 391.261 312.069, 392 311.384, 392 310.893 C 392 309.607, 391.421 309.788, 389.981 311.523 M 230.250 311.662 C 229.563 311.940, 229 313.254, 229 314.583 C 229 315.913, 228.523 317, 227.941 317 C 227.359 317, 227.160 317.450, 227.500 318 C 227.840 318.550, 229.343 319, 230.840 319 C 232.983 319, 233.818 318.320, 234.769 315.802 C 236.293 311.764, 234.368 310.001, 230.250 311.662 M 316.131 312.342 C 315.519 313.080, 315.310 313.976, 315.667 314.333 C 316.417 315.084, 319 313.181, 319 311.878 C 319 310.561, 317.393 310.821, 316.131 312.342 M 265 315.500 C 265 316.325, 265.177 317, 265.393 317 C 265.609 317, 266.045 316.325, 266.362 315.500 C 266.678 314.675, 266.501 314, 265.969 314 C 265.436 314, 265 314.675, 265 315.500 M 323 320.050 C 321.075 321.058, 318.098 322.389, 316.384 323.007 C 314.670 323.626, 312.645 325.340, 311.884 326.816 C 311.123 328.292, 309.938 330.095, 309.250 330.821 C 308.563 331.548, 308.001 332.448, 308.001 332.821 C 308.002 333.423, 312.099 333.565, 317.293 333.145 C 319.775 332.944, 329.193 323.946, 328.584 322.358 C 328.311 321.646, 328.566 320.768, 329.150 320.407 C 329.857 319.970, 329.759 319.462, 328.857 318.890 C 327.184 317.831, 327.270 317.814, 323 320.050 M 261.937 324.218 C 258.881 325.350, 259.650 326.581, 264.250 327.924 C 266.587 328.606, 270.157 330.292, 272.182 331.671 C 274.543 333.279, 276.573 333.953, 277.840 333.551 C 281.407 332.419, 281.080 330.231, 276.841 326.874 C 273.710 324.394, 271.761 323.640, 268.327 323.579 C 265.879 323.535, 263.003 323.823, 261.937 324.218 M 291 336 C 291 336.550, 291.450 337, 292 337 C 292.550 337, 293 336.550, 293 336 C 293 335.450, 292.550 335, 292 335 C 291.450 335, 291 335.450, 291 336 M 305.742 336.993 C 301.818 339.397, 301.396 340, 303.642 340 C 306.097 340, 309.409 337.674, 308.888 336.315 C 308.658 335.716, 307.377 335.992, 305.742 336.993" stroke="none" fill="#000000" fill-rule="evenodd"/>
</svg>